<mxfile host="Electron" modified="2024-07-20T13:51:07.993Z" agent="Mozilla/5.0 (Windows NT 10.0; Win64; x64) AppleWebKit/537.36 (KHTML, like Gecko) draw.io/24.6.4 Chrome/124.0.6367.207 Electron/30.0.6 Safari/537.36" etag="BMhU2a4xkr0HGZ9SROZ_" version="24.6.4" type="device">
  <diagram name="Page-1" id="PsAtA5OKBTyBg6Aakqr0">
    <mxGraphModel dx="1955" dy="654" grid="1" gridSize="10" guides="1" tooltips="1" connect="1" arrows="1" fold="1" page="1" pageScale="1" pageWidth="850" pageHeight="1100" math="0" shadow="0">
      <root>
        <mxCell id="0" />
        <mxCell id="1" parent="0" />
        <mxCell id="bx6AhHy9VFiDVNSOKtPU-1" value="" style="shape=table;startSize=0;container=1;collapsible=0;childLayout=tableLayout;" vertex="1" parent="1">
          <mxGeometry x="40" y="80" width="360" height="40" as="geometry" />
        </mxCell>
        <mxCell id="bx6AhHy9VFiDVNSOKtPU-2" value="" style="shape=tableRow;horizontal=0;startSize=0;swimlaneHead=0;swimlaneBody=0;strokeColor=inherit;top=0;left=0;bottom=0;right=0;collapsible=0;dropTarget=0;fillColor=none;points=[[0,0.5],[1,0.5]];portConstraint=eastwest;" vertex="1" parent="bx6AhHy9VFiDVNSOKtPU-1">
          <mxGeometry width="360" height="40" as="geometry" />
        </mxCell>
        <mxCell id="bx6AhHy9VFiDVNSOKtPU-3" value="&lt;u&gt;ID&lt;/u&gt;" style="shape=partialRectangle;html=1;whiteSpace=wrap;connectable=0;strokeColor=inherit;overflow=hidden;fillColor=none;top=0;left=0;bottom=0;right=0;pointerEvents=1;" vertex="1" parent="bx6AhHy9VFiDVNSOKtPU-2">
          <mxGeometry width="60" height="40" as="geometry">
            <mxRectangle width="60" height="40" as="alternateBounds" />
          </mxGeometry>
        </mxCell>
        <mxCell id="bx6AhHy9VFiDVNSOKtPU-4" value="age" style="shape=partialRectangle;html=1;whiteSpace=wrap;connectable=0;strokeColor=inherit;overflow=hidden;fillColor=none;top=0;left=0;bottom=0;right=0;pointerEvents=1;" vertex="1" parent="bx6AhHy9VFiDVNSOKtPU-2">
          <mxGeometry x="60" width="60" height="40" as="geometry">
            <mxRectangle width="60" height="40" as="alternateBounds" />
          </mxGeometry>
        </mxCell>
        <mxCell id="bx6AhHy9VFiDVNSOKtPU-5" value="LName" style="shape=partialRectangle;html=1;whiteSpace=wrap;connectable=0;strokeColor=inherit;overflow=hidden;fillColor=none;top=0;left=0;bottom=0;right=0;pointerEvents=1;" vertex="1" parent="bx6AhHy9VFiDVNSOKtPU-2">
          <mxGeometry x="120" width="60" height="40" as="geometry">
            <mxRectangle width="60" height="40" as="alternateBounds" />
          </mxGeometry>
        </mxCell>
        <mxCell id="bx6AhHy9VFiDVNSOKtPU-6" value="FName" style="shape=partialRectangle;html=1;whiteSpace=wrap;connectable=0;strokeColor=inherit;overflow=hidden;fillColor=none;top=0;left=0;bottom=0;right=0;pointerEvents=1;" vertex="1" parent="bx6AhHy9VFiDVNSOKtPU-2">
          <mxGeometry x="180" width="60" height="40" as="geometry">
            <mxRectangle width="60" height="40" as="alternateBounds" />
          </mxGeometry>
        </mxCell>
        <mxCell id="bx6AhHy9VFiDVNSOKtPU-7" value="adress" style="shape=partialRectangle;html=1;whiteSpace=wrap;connectable=0;strokeColor=inherit;overflow=hidden;fillColor=none;top=0;left=0;bottom=0;right=0;pointerEvents=1;" vertex="1" parent="bx6AhHy9VFiDVNSOKtPU-2">
          <mxGeometry x="240" width="60" height="40" as="geometry">
            <mxRectangle width="60" height="40" as="alternateBounds" />
          </mxGeometry>
        </mxCell>
        <mxCell id="bx6AhHy9VFiDVNSOKtPU-39" value="dep_Id" style="shape=partialRectangle;html=1;whiteSpace=wrap;connectable=0;strokeColor=inherit;overflow=hidden;fillColor=none;top=0;left=0;bottom=0;right=0;pointerEvents=1;" vertex="1" parent="bx6AhHy9VFiDVNSOKtPU-2">
          <mxGeometry x="300" width="60" height="40" as="geometry">
            <mxRectangle width="60" height="40" as="alternateBounds" />
          </mxGeometry>
        </mxCell>
        <mxCell id="bx6AhHy9VFiDVNSOKtPU-8" value="Student" style="text;html=1;align=center;verticalAlign=middle;resizable=0;points=[];autosize=1;strokeColor=none;fillColor=none;" vertex="1" parent="1">
          <mxGeometry x="30" y="38" width="60" height="30" as="geometry" />
        </mxCell>
        <mxCell id="bx6AhHy9VFiDVNSOKtPU-9" value="" style="shape=table;startSize=0;container=1;collapsible=0;childLayout=tableLayout;" vertex="1" parent="1">
          <mxGeometry x="40" y="198" width="320" height="40" as="geometry" />
        </mxCell>
        <mxCell id="bx6AhHy9VFiDVNSOKtPU-10" value="" style="shape=tableRow;horizontal=0;startSize=0;swimlaneHead=0;swimlaneBody=0;strokeColor=inherit;top=0;left=0;bottom=0;right=0;collapsible=0;dropTarget=0;fillColor=none;points=[[0,0.5],[1,0.5]];portConstraint=eastwest;" vertex="1" parent="bx6AhHy9VFiDVNSOKtPU-9">
          <mxGeometry width="320" height="40" as="geometry" />
        </mxCell>
        <mxCell id="bx6AhHy9VFiDVNSOKtPU-11" value="&lt;u&gt;ID&lt;/u&gt;" style="shape=partialRectangle;html=1;whiteSpace=wrap;connectable=0;strokeColor=inherit;overflow=hidden;fillColor=none;top=0;left=0;bottom=0;right=0;pointerEvents=1;" vertex="1" parent="bx6AhHy9VFiDVNSOKtPU-10">
          <mxGeometry width="60" height="40" as="geometry">
            <mxRectangle width="60" height="40" as="alternateBounds" />
          </mxGeometry>
        </mxCell>
        <mxCell id="bx6AhHy9VFiDVNSOKtPU-12" value="Name" style="shape=partialRectangle;html=1;whiteSpace=wrap;connectable=0;strokeColor=inherit;overflow=hidden;fillColor=none;top=0;left=0;bottom=0;right=0;pointerEvents=1;" vertex="1" parent="bx6AhHy9VFiDVNSOKtPU-10">
          <mxGeometry x="60" width="60" height="40" as="geometry">
            <mxRectangle width="60" height="40" as="alternateBounds" />
          </mxGeometry>
        </mxCell>
        <mxCell id="bx6AhHy9VFiDVNSOKtPU-13" value="Duration" style="shape=partialRectangle;html=1;whiteSpace=wrap;connectable=0;strokeColor=inherit;overflow=hidden;fillColor=none;top=0;left=0;bottom=0;right=0;pointerEvents=1;" vertex="1" parent="bx6AhHy9VFiDVNSOKtPU-10">
          <mxGeometry x="120" width="60" height="40" as="geometry">
            <mxRectangle width="60" height="40" as="alternateBounds" />
          </mxGeometry>
        </mxCell>
        <mxCell id="bx6AhHy9VFiDVNSOKtPU-14" value="Description&amp;nbsp;" style="shape=partialRectangle;html=1;whiteSpace=wrap;connectable=0;strokeColor=inherit;overflow=hidden;fillColor=none;top=0;left=0;bottom=0;right=0;pointerEvents=1;" vertex="1" parent="bx6AhHy9VFiDVNSOKtPU-10">
          <mxGeometry x="180" width="70" height="40" as="geometry">
            <mxRectangle width="70" height="40" as="alternateBounds" />
          </mxGeometry>
        </mxCell>
        <mxCell id="bx6AhHy9VFiDVNSOKtPU-45" value="Topic_ID" style="shape=partialRectangle;html=1;whiteSpace=wrap;connectable=0;strokeColor=inherit;overflow=hidden;fillColor=none;top=0;left=0;bottom=0;right=0;pointerEvents=1;" vertex="1" parent="bx6AhHy9VFiDVNSOKtPU-10">
          <mxGeometry x="250" width="70" height="40" as="geometry">
            <mxRectangle width="70" height="40" as="alternateBounds" />
          </mxGeometry>
        </mxCell>
        <mxCell id="bx6AhHy9VFiDVNSOKtPU-15" value="Course" style="text;html=1;align=center;verticalAlign=middle;resizable=0;points=[];autosize=1;strokeColor=none;fillColor=none;" vertex="1" parent="1">
          <mxGeometry x="30" y="168" width="60" height="30" as="geometry" />
        </mxCell>
        <mxCell id="bx6AhHy9VFiDVNSOKtPU-16" value="" style="shape=table;startSize=0;container=1;collapsible=0;childLayout=tableLayout;" vertex="1" parent="1">
          <mxGeometry x="40" y="320" width="120" height="40" as="geometry" />
        </mxCell>
        <mxCell id="bx6AhHy9VFiDVNSOKtPU-17" value="" style="shape=tableRow;horizontal=0;startSize=0;swimlaneHead=0;swimlaneBody=0;strokeColor=inherit;top=0;left=0;bottom=0;right=0;collapsible=0;dropTarget=0;fillColor=none;points=[[0,0.5],[1,0.5]];portConstraint=eastwest;" vertex="1" parent="bx6AhHy9VFiDVNSOKtPU-16">
          <mxGeometry width="120" height="40" as="geometry" />
        </mxCell>
        <mxCell id="bx6AhHy9VFiDVNSOKtPU-18" value="&lt;u&gt;ID&lt;/u&gt;" style="shape=partialRectangle;html=1;whiteSpace=wrap;connectable=0;strokeColor=inherit;overflow=hidden;fillColor=none;top=0;left=0;bottom=0;right=0;pointerEvents=1;" vertex="1" parent="bx6AhHy9VFiDVNSOKtPU-17">
          <mxGeometry width="60" height="40" as="geometry">
            <mxRectangle width="60" height="40" as="alternateBounds" />
          </mxGeometry>
        </mxCell>
        <mxCell id="bx6AhHy9VFiDVNSOKtPU-19" value="Name" style="shape=partialRectangle;html=1;whiteSpace=wrap;connectable=0;strokeColor=inherit;overflow=hidden;fillColor=none;top=0;left=0;bottom=0;right=0;pointerEvents=1;" vertex="1" parent="bx6AhHy9VFiDVNSOKtPU-17">
          <mxGeometry x="60" width="60" height="40" as="geometry">
            <mxRectangle width="60" height="40" as="alternateBounds" />
          </mxGeometry>
        </mxCell>
        <mxCell id="bx6AhHy9VFiDVNSOKtPU-20" value="Topic" style="text;html=1;align=center;verticalAlign=middle;resizable=0;points=[];autosize=1;strokeColor=none;fillColor=none;" vertex="1" parent="1">
          <mxGeometry x="25" y="288" width="50" height="30" as="geometry" />
        </mxCell>
        <mxCell id="bx6AhHy9VFiDVNSOKtPU-21" value="" style="shape=table;startSize=0;container=1;collapsible=0;childLayout=tableLayout;" vertex="1" parent="1">
          <mxGeometry x="40" y="440" width="260" height="40" as="geometry" />
        </mxCell>
        <mxCell id="bx6AhHy9VFiDVNSOKtPU-22" value="" style="shape=tableRow;horizontal=0;startSize=0;swimlaneHead=0;swimlaneBody=0;strokeColor=inherit;top=0;left=0;bottom=0;right=0;collapsible=0;dropTarget=0;fillColor=none;points=[[0,0.5],[1,0.5]];portConstraint=eastwest;" vertex="1" parent="bx6AhHy9VFiDVNSOKtPU-21">
          <mxGeometry width="260" height="40" as="geometry" />
        </mxCell>
        <mxCell id="bx6AhHy9VFiDVNSOKtPU-23" value="&lt;u&gt;ID&lt;/u&gt;" style="shape=partialRectangle;html=1;whiteSpace=wrap;connectable=0;strokeColor=inherit;overflow=hidden;fillColor=none;top=0;left=0;bottom=0;right=0;pointerEvents=1;" vertex="1" parent="bx6AhHy9VFiDVNSOKtPU-22">
          <mxGeometry width="60" height="40" as="geometry">
            <mxRectangle width="60" height="40" as="alternateBounds" />
          </mxGeometry>
        </mxCell>
        <mxCell id="bx6AhHy9VFiDVNSOKtPU-24" value="Name" style="shape=partialRectangle;html=1;whiteSpace=wrap;connectable=0;strokeColor=inherit;overflow=hidden;fillColor=none;top=0;left=0;bottom=0;right=0;pointerEvents=1;" vertex="1" parent="bx6AhHy9VFiDVNSOKtPU-22">
          <mxGeometry x="60" width="60" height="40" as="geometry">
            <mxRectangle width="60" height="40" as="alternateBounds" />
          </mxGeometry>
        </mxCell>
        <mxCell id="bx6AhHy9VFiDVNSOKtPU-36" value="inst_id" style="shape=partialRectangle;html=1;whiteSpace=wrap;connectable=0;strokeColor=inherit;overflow=hidden;fillColor=none;top=0;left=0;bottom=0;right=0;pointerEvents=1;" vertex="1" parent="bx6AhHy9VFiDVNSOKtPU-22">
          <mxGeometry x="120" width="60" height="40" as="geometry">
            <mxRectangle width="60" height="40" as="alternateBounds" />
          </mxGeometry>
        </mxCell>
        <mxCell id="bx6AhHy9VFiDVNSOKtPU-76" value="Hiring_date" style="shape=partialRectangle;html=1;whiteSpace=wrap;connectable=0;strokeColor=inherit;overflow=hidden;fillColor=none;top=0;left=0;bottom=0;right=0;pointerEvents=1;" vertex="1" parent="bx6AhHy9VFiDVNSOKtPU-22">
          <mxGeometry x="180" width="80" height="40" as="geometry">
            <mxRectangle width="80" height="40" as="alternateBounds" />
          </mxGeometry>
        </mxCell>
        <mxCell id="bx6AhHy9VFiDVNSOKtPU-25" value="Department&amp;nbsp;" style="text;html=1;align=center;verticalAlign=middle;resizable=0;points=[];autosize=1;strokeColor=none;fillColor=none;" vertex="1" parent="1">
          <mxGeometry x="-15" y="400" width="90" height="30" as="geometry" />
        </mxCell>
        <mxCell id="bx6AhHy9VFiDVNSOKtPU-26" value="" style="shape=table;startSize=0;container=1;collapsible=0;childLayout=tableLayout;" vertex="1" parent="1">
          <mxGeometry x="40" y="560" width="420" height="40" as="geometry" />
        </mxCell>
        <mxCell id="bx6AhHy9VFiDVNSOKtPU-27" value="" style="shape=tableRow;horizontal=0;startSize=0;swimlaneHead=0;swimlaneBody=0;strokeColor=inherit;top=0;left=0;bottom=0;right=0;collapsible=0;dropTarget=0;fillColor=none;points=[[0,0.5],[1,0.5]];portConstraint=eastwest;" vertex="1" parent="bx6AhHy9VFiDVNSOKtPU-26">
          <mxGeometry width="420" height="40" as="geometry" />
        </mxCell>
        <mxCell id="bx6AhHy9VFiDVNSOKtPU-35" value="&lt;u&gt;ID&lt;/u&gt;" style="shape=partialRectangle;html=1;whiteSpace=wrap;connectable=0;strokeColor=inherit;overflow=hidden;fillColor=none;top=0;left=0;bottom=0;right=0;pointerEvents=1;" vertex="1" parent="bx6AhHy9VFiDVNSOKtPU-27">
          <mxGeometry width="60" height="40" as="geometry">
            <mxRectangle width="60" height="40" as="alternateBounds" />
          </mxGeometry>
        </mxCell>
        <mxCell id="bx6AhHy9VFiDVNSOKtPU-28" value="hour-rate" style="shape=partialRectangle;html=1;whiteSpace=wrap;connectable=0;strokeColor=inherit;overflow=hidden;fillColor=none;top=0;left=0;bottom=0;right=0;pointerEvents=1;" vertex="1" parent="bx6AhHy9VFiDVNSOKtPU-27">
          <mxGeometry x="60" width="60" height="40" as="geometry">
            <mxRectangle width="60" height="40" as="alternateBounds" />
          </mxGeometry>
        </mxCell>
        <mxCell id="bx6AhHy9VFiDVNSOKtPU-29" value="salary" style="shape=partialRectangle;html=1;whiteSpace=wrap;connectable=0;strokeColor=inherit;overflow=hidden;fillColor=none;top=0;left=0;bottom=0;right=0;pointerEvents=1;" vertex="1" parent="bx6AhHy9VFiDVNSOKtPU-27">
          <mxGeometry x="120" width="60" height="40" as="geometry">
            <mxRectangle width="60" height="40" as="alternateBounds" />
          </mxGeometry>
        </mxCell>
        <mxCell id="bx6AhHy9VFiDVNSOKtPU-30" value="address" style="shape=partialRectangle;html=1;whiteSpace=wrap;connectable=0;strokeColor=inherit;overflow=hidden;fillColor=none;top=0;left=0;bottom=0;right=0;pointerEvents=1;" vertex="1" parent="bx6AhHy9VFiDVNSOKtPU-27">
          <mxGeometry x="180" width="60" height="40" as="geometry">
            <mxRectangle width="60" height="40" as="alternateBounds" />
          </mxGeometry>
        </mxCell>
        <mxCell id="bx6AhHy9VFiDVNSOKtPU-31" value="bouns" style="shape=partialRectangle;html=1;whiteSpace=wrap;connectable=0;strokeColor=inherit;overflow=hidden;fillColor=none;top=0;left=0;bottom=0;right=0;pointerEvents=1;" vertex="1" parent="bx6AhHy9VFiDVNSOKtPU-27">
          <mxGeometry x="240" width="60" height="40" as="geometry">
            <mxRectangle width="60" height="40" as="alternateBounds" />
          </mxGeometry>
        </mxCell>
        <mxCell id="bx6AhHy9VFiDVNSOKtPU-32" value="Name" style="shape=partialRectangle;html=1;whiteSpace=wrap;connectable=0;strokeColor=inherit;overflow=hidden;fillColor=none;top=0;left=0;bottom=0;right=0;pointerEvents=1;" vertex="1" parent="bx6AhHy9VFiDVNSOKtPU-27">
          <mxGeometry x="300" width="60" height="40" as="geometry">
            <mxRectangle width="60" height="40" as="alternateBounds" />
          </mxGeometry>
        </mxCell>
        <mxCell id="bx6AhHy9VFiDVNSOKtPU-42" value="dep_ID" style="shape=partialRectangle;html=1;whiteSpace=wrap;connectable=0;strokeColor=inherit;overflow=hidden;fillColor=none;top=0;left=0;bottom=0;right=0;pointerEvents=1;" vertex="1" parent="bx6AhHy9VFiDVNSOKtPU-27">
          <mxGeometry x="360" width="60" height="40" as="geometry">
            <mxRectangle width="60" height="40" as="alternateBounds" />
          </mxGeometry>
        </mxCell>
        <mxCell id="bx6AhHy9VFiDVNSOKtPU-34" value="Instructor&amp;nbsp;" style="text;html=1;align=center;verticalAlign=middle;resizable=0;points=[];autosize=1;strokeColor=none;fillColor=none;" vertex="1" parent="1">
          <mxGeometry y="530" width="80" height="30" as="geometry" />
        </mxCell>
        <mxCell id="bx6AhHy9VFiDVNSOKtPU-37" value="" style="endArrow=none;dashed=1;html=1;rounded=0;" edge="1" parent="1">
          <mxGeometry width="50" height="50" relative="1" as="geometry">
            <mxPoint x="165" y="470" as="sourcePoint" />
            <mxPoint x="215" y="470" as="targetPoint" />
          </mxGeometry>
        </mxCell>
        <mxCell id="bx6AhHy9VFiDVNSOKtPU-38" value="" style="endArrow=classic;html=1;rounded=0;entryX=0.097;entryY=-0.023;entryDx=0;entryDy=0;entryPerimeter=0;" edge="1" parent="1" target="bx6AhHy9VFiDVNSOKtPU-27">
          <mxGeometry width="50" height="50" relative="1" as="geometry">
            <mxPoint x="210" y="479" as="sourcePoint" />
            <mxPoint x="87" y="560" as="targetPoint" />
            <Array as="points">
              <mxPoint x="210" y="520" />
              <mxPoint x="81" y="520" />
            </Array>
          </mxGeometry>
        </mxCell>
        <mxCell id="bx6AhHy9VFiDVNSOKtPU-40" value="" style="endArrow=none;dashed=1;html=1;rounded=0;" edge="1" parent="1">
          <mxGeometry width="50" height="50" relative="1" as="geometry">
            <mxPoint x="350" y="110" as="sourcePoint" />
            <mxPoint x="390" y="110" as="targetPoint" />
          </mxGeometry>
        </mxCell>
        <mxCell id="bx6AhHy9VFiDVNSOKtPU-41" value="" style="endArrow=classic;html=1;rounded=0;exitX=0.983;exitY=0.974;exitDx=0;exitDy=0;entryX=0.126;entryY=-0.061;entryDx=0;entryDy=0;entryPerimeter=0;exitPerimeter=0;" edge="1" parent="1" source="bx6AhHy9VFiDVNSOKtPU-2" target="bx6AhHy9VFiDVNSOKtPU-22">
          <mxGeometry width="50" height="50" relative="1" as="geometry">
            <mxPoint x="400" y="110" as="sourcePoint" />
            <mxPoint x="43.50000000000023" y="432.37" as="targetPoint" />
            <Array as="points">
              <mxPoint x="400" y="410" />
              <mxPoint x="70" y="410" />
            </Array>
          </mxGeometry>
        </mxCell>
        <mxCell id="bx6AhHy9VFiDVNSOKtPU-43" value="" style="endArrow=none;dashed=1;html=1;rounded=0;" edge="1" parent="1">
          <mxGeometry width="50" height="50" relative="1" as="geometry">
            <mxPoint x="400" y="590" as="sourcePoint" />
            <mxPoint x="450" y="590" as="targetPoint" />
          </mxGeometry>
        </mxCell>
        <mxCell id="bx6AhHy9VFiDVNSOKtPU-44" value="" style="endArrow=classic;html=1;rounded=0;entryX=0.013;entryY=0.348;entryDx=0;entryDy=0;entryPerimeter=0;exitX=0.953;exitY=1.002;exitDx=0;exitDy=0;exitPerimeter=0;" edge="1" parent="1" source="bx6AhHy9VFiDVNSOKtPU-27" target="bx6AhHy9VFiDVNSOKtPU-22">
          <mxGeometry width="50" height="50" relative="1" as="geometry">
            <mxPoint x="500" y="580" as="sourcePoint" />
            <mxPoint x="550" y="530" as="targetPoint" />
            <Array as="points">
              <mxPoint x="440" y="640" />
              <mxPoint x="10" y="640" />
              <mxPoint x="10" y="454" />
            </Array>
          </mxGeometry>
        </mxCell>
        <mxCell id="bx6AhHy9VFiDVNSOKtPU-46" value="" style="endArrow=none;dashed=1;html=1;rounded=0;" edge="1" parent="1">
          <mxGeometry width="50" height="50" relative="1" as="geometry">
            <mxPoint x="300" y="230" as="sourcePoint" />
            <mxPoint x="350" y="230" as="targetPoint" />
          </mxGeometry>
        </mxCell>
        <mxCell id="bx6AhHy9VFiDVNSOKtPU-47" value="" style="endArrow=classic;html=1;rounded=0;entryX=0.244;entryY=0.008;entryDx=0;entryDy=0;entryPerimeter=0;exitX=0.873;exitY=1.02;exitDx=0;exitDy=0;exitPerimeter=0;" edge="1" parent="1" source="bx6AhHy9VFiDVNSOKtPU-10" target="bx6AhHy9VFiDVNSOKtPU-17">
          <mxGeometry width="50" height="50" relative="1" as="geometry">
            <mxPoint x="320" y="230" as="sourcePoint" />
            <mxPoint x="280" y="280" as="targetPoint" />
            <Array as="points">
              <mxPoint x="320" y="280" />
              <mxPoint x="70" y="280" />
            </Array>
          </mxGeometry>
        </mxCell>
        <mxCell id="bx6AhHy9VFiDVNSOKtPU-57" style="edgeStyle=orthogonalEdgeStyle;rounded=0;orthogonalLoop=1;jettySize=auto;html=1;entryX=0;entryY=0.5;entryDx=0;entryDy=0;" edge="1" parent="1" source="bx6AhHy9VFiDVNSOKtPU-48" target="bx6AhHy9VFiDVNSOKtPU-2">
          <mxGeometry relative="1" as="geometry">
            <mxPoint x="-70" y="90" as="targetPoint" />
            <Array as="points">
              <mxPoint x="-40" y="750" />
              <mxPoint x="-40" y="100" />
            </Array>
          </mxGeometry>
        </mxCell>
        <mxCell id="bx6AhHy9VFiDVNSOKtPU-48" value="" style="shape=table;startSize=0;container=1;collapsible=0;childLayout=tableLayout;" vertex="1" parent="1">
          <mxGeometry y="720" width="200" height="60" as="geometry" />
        </mxCell>
        <mxCell id="bx6AhHy9VFiDVNSOKtPU-49" value="" style="shape=tableRow;horizontal=0;startSize=0;swimlaneHead=0;swimlaneBody=0;strokeColor=inherit;top=0;left=0;bottom=0;right=0;collapsible=0;dropTarget=0;fillColor=none;points=[[0,0.5],[1,0.5]];portConstraint=eastwest;" vertex="1" parent="bx6AhHy9VFiDVNSOKtPU-48">
          <mxGeometry width="200" height="60" as="geometry" />
        </mxCell>
        <mxCell id="bx6AhHy9VFiDVNSOKtPU-50" value="st_ID" style="shape=partialRectangle;html=1;whiteSpace=wrap;connectable=0;strokeColor=inherit;overflow=hidden;fillColor=none;top=0;left=0;bottom=0;right=0;pointerEvents=1;" vertex="1" parent="bx6AhHy9VFiDVNSOKtPU-49">
          <mxGeometry width="60" height="60" as="geometry">
            <mxRectangle width="60" height="60" as="alternateBounds" />
          </mxGeometry>
        </mxCell>
        <mxCell id="bx6AhHy9VFiDVNSOKtPU-51" value="Course_ID" style="shape=partialRectangle;html=1;whiteSpace=wrap;connectable=0;strokeColor=inherit;overflow=hidden;fillColor=none;top=0;left=0;bottom=0;right=0;pointerEvents=1;" vertex="1" parent="bx6AhHy9VFiDVNSOKtPU-49">
          <mxGeometry x="60" width="70" height="60" as="geometry">
            <mxRectangle width="70" height="60" as="alternateBounds" />
          </mxGeometry>
        </mxCell>
        <mxCell id="bx6AhHy9VFiDVNSOKtPU-81" value="Grade" style="shape=partialRectangle;html=1;whiteSpace=wrap;connectable=0;strokeColor=inherit;overflow=hidden;fillColor=none;top=0;left=0;bottom=0;right=0;pointerEvents=1;" vertex="1" parent="bx6AhHy9VFiDVNSOKtPU-49">
          <mxGeometry x="130" width="70" height="60" as="geometry">
            <mxRectangle width="70" height="60" as="alternateBounds" />
          </mxGeometry>
        </mxCell>
        <mxCell id="bx6AhHy9VFiDVNSOKtPU-52" value="studnet-course" style="text;html=1;align=center;verticalAlign=middle;resizable=0;points=[];autosize=1;strokeColor=none;fillColor=none;" vertex="1" parent="1">
          <mxGeometry x="-30" y="678" width="100" height="30" as="geometry" />
        </mxCell>
        <mxCell id="bx6AhHy9VFiDVNSOKtPU-53" value="" style="endArrow=none;dashed=1;html=1;rounded=0;" edge="1" parent="1">
          <mxGeometry width="50" height="50" relative="1" as="geometry">
            <mxPoint x="70" y="760" as="sourcePoint" />
            <mxPoint x="120" y="760" as="targetPoint" />
          </mxGeometry>
        </mxCell>
        <mxCell id="bx6AhHy9VFiDVNSOKtPU-54" value="" style="endArrow=none;dashed=1;html=1;rounded=0;" edge="1" parent="1">
          <mxGeometry width="50" height="50" relative="1" as="geometry">
            <mxPoint x="5" y="760" as="sourcePoint" />
            <mxPoint x="55" y="760" as="targetPoint" />
          </mxGeometry>
        </mxCell>
        <mxCell id="bx6AhHy9VFiDVNSOKtPU-55" value="" style="endArrow=none;html=1;rounded=0;strokeWidth=2;" edge="1" parent="1">
          <mxGeometry width="50" height="50" relative="1" as="geometry">
            <mxPoint x="30" y="770" as="sourcePoint" />
            <mxPoint x="100" y="770" as="targetPoint" />
          </mxGeometry>
        </mxCell>
        <mxCell id="bx6AhHy9VFiDVNSOKtPU-58" style="edgeStyle=orthogonalEdgeStyle;rounded=0;orthogonalLoop=1;jettySize=auto;html=1;entryX=0;entryY=0.5;entryDx=0;entryDy=0;" edge="1" parent="1" source="bx6AhHy9VFiDVNSOKtPU-49">
          <mxGeometry relative="1" as="geometry">
            <mxPoint y="761.9999999999998" as="sourcePoint" />
            <mxPoint x="40" y="230.0000000000001" as="targetPoint" />
            <Array as="points">
              <mxPoint x="65" y="800" />
              <mxPoint x="-80" y="800" />
              <mxPoint x="-80" y="230" />
            </Array>
          </mxGeometry>
        </mxCell>
        <mxCell id="bx6AhHy9VFiDVNSOKtPU-70" style="edgeStyle=orthogonalEdgeStyle;rounded=0;orthogonalLoop=1;jettySize=auto;html=1;exitX=0;exitY=0.732;exitDx=0;exitDy=0;exitPerimeter=0;" edge="1" parent="1" source="bx6AhHy9VFiDVNSOKtPU-60" target="bx6AhHy9VFiDVNSOKtPU-10">
          <mxGeometry relative="1" as="geometry">
            <mxPoint x="50" y="830" as="sourcePoint" />
            <mxPoint x="40" y="197.9999999999999" as="targetPoint" />
            <Array as="points">
              <mxPoint x="-10" y="880" />
              <mxPoint x="-120" y="880" />
              <mxPoint x="-120" y="210" />
            </Array>
          </mxGeometry>
        </mxCell>
        <mxCell id="bx6AhHy9VFiDVNSOKtPU-59" value="" style="shape=table;startSize=0;container=1;collapsible=0;childLayout=tableLayout;" vertex="1" parent="1">
          <mxGeometry x="-10" y="850" width="200" height="70" as="geometry" />
        </mxCell>
        <mxCell id="bx6AhHy9VFiDVNSOKtPU-60" value="" style="shape=tableRow;horizontal=0;startSize=0;swimlaneHead=0;swimlaneBody=0;strokeColor=inherit;top=0;left=0;bottom=0;right=0;collapsible=0;dropTarget=0;fillColor=none;points=[[0,0.5],[1,0.5]];portConstraint=eastwest;" vertex="1" parent="bx6AhHy9VFiDVNSOKtPU-59">
          <mxGeometry width="200" height="70" as="geometry" />
        </mxCell>
        <mxCell id="bx6AhHy9VFiDVNSOKtPU-61" value="course_Id" style="shape=partialRectangle;html=1;whiteSpace=wrap;connectable=0;strokeColor=inherit;overflow=hidden;fillColor=none;top=0;left=0;bottom=0;right=0;pointerEvents=1;" vertex="1" parent="bx6AhHy9VFiDVNSOKtPU-60">
          <mxGeometry width="60" height="70" as="geometry">
            <mxRectangle width="60" height="70" as="alternateBounds" />
          </mxGeometry>
        </mxCell>
        <mxCell id="bx6AhHy9VFiDVNSOKtPU-62" value="inst_Id" style="shape=partialRectangle;html=1;whiteSpace=wrap;connectable=0;strokeColor=inherit;overflow=hidden;fillColor=none;top=0;left=0;bottom=0;right=0;pointerEvents=1;" vertex="1" parent="bx6AhHy9VFiDVNSOKtPU-60">
          <mxGeometry x="60" width="60" height="70" as="geometry">
            <mxRectangle width="60" height="70" as="alternateBounds" />
          </mxGeometry>
        </mxCell>
        <mxCell id="bx6AhHy9VFiDVNSOKtPU-82" value="evaluation&amp;nbsp;" style="shape=partialRectangle;html=1;whiteSpace=wrap;connectable=0;strokeColor=inherit;overflow=hidden;fillColor=none;top=0;left=0;bottom=0;right=0;pointerEvents=1;" vertex="1" parent="bx6AhHy9VFiDVNSOKtPU-60">
          <mxGeometry x="120" width="80" height="70" as="geometry">
            <mxRectangle width="80" height="70" as="alternateBounds" />
          </mxGeometry>
        </mxCell>
        <mxCell id="bx6AhHy9VFiDVNSOKtPU-65" value="" style="endArrow=none;html=1;rounded=0;" edge="1" parent="1">
          <mxGeometry width="50" height="50" relative="1" as="geometry">
            <mxPoint y="910" as="sourcePoint" />
            <mxPoint x="105" y="910" as="targetPoint" />
          </mxGeometry>
        </mxCell>
        <mxCell id="bx6AhHy9VFiDVNSOKtPU-66" value="" style="endArrow=none;dashed=1;html=1;rounded=0;" edge="1" parent="1">
          <mxGeometry width="50" height="50" relative="1" as="geometry">
            <mxPoint y="900" as="sourcePoint" />
            <mxPoint x="40" y="900" as="targetPoint" />
          </mxGeometry>
        </mxCell>
        <mxCell id="bx6AhHy9VFiDVNSOKtPU-67" value="" style="endArrow=none;dashed=1;html=1;rounded=0;" edge="1" parent="1">
          <mxGeometry width="50" height="50" relative="1" as="geometry">
            <mxPoint x="60" y="900" as="sourcePoint" />
            <mxPoint x="100" y="900" as="targetPoint" />
          </mxGeometry>
        </mxCell>
        <mxCell id="bx6AhHy9VFiDVNSOKtPU-68" value="course-instructor" style="text;html=1;align=center;verticalAlign=middle;resizable=0;points=[];autosize=1;strokeColor=none;fillColor=none;" vertex="1" parent="1">
          <mxGeometry x="-15" y="820" width="110" height="30" as="geometry" />
        </mxCell>
        <mxCell id="bx6AhHy9VFiDVNSOKtPU-74" style="edgeStyle=orthogonalEdgeStyle;rounded=0;orthogonalLoop=1;jettySize=auto;html=1;" edge="1" parent="1" source="bx6AhHy9VFiDVNSOKtPU-60" target="bx6AhHy9VFiDVNSOKtPU-27">
          <mxGeometry relative="1" as="geometry">
            <Array as="points">
              <mxPoint x="70" y="950" />
              <mxPoint x="-170" y="950" />
              <mxPoint x="-170" y="580" />
            </Array>
          </mxGeometry>
        </mxCell>
      </root>
    </mxGraphModel>
  </diagram>
</mxfile>
